<svg xmlns="http://www.w3.org/2000/svg" viewBox="0 0 512 512" role="img" aria-labelledby="title description">
    <title id="title">NFL Virtual Coaching Staff</title>
    <desc id="description">A football and headset mark on a navy coaching play card.</desc>
    <defs>
        <linearGradient id="navy" x1="0" y1="0" x2="1" y2="1">
            <stop offset="0" stop-color="#00142d"/>
            <stop offset="1" stop-color="#2b394b"/>
        </linearGradient>
        <linearGradient id="orange" x1="0" y1="0" x2="1" y2="1">
            <stop offset="0" stop-color="#ffa547"/>
            <stop offset="1" stop-color="#ff5a00"/>
        </linearGradient>
    </defs>
    <rect width="512" height="512" rx="112" fill="url(#navy)"/>
    <path d="M75 175v162M437 175v162" fill="none" stroke="#f8fafc" stroke-width="25" stroke-linecap="round"/>
    <path d="M75 190c0-103 81-150 181-150s181 47 181 150" fill="none" stroke="url(#orange)" stroke-width="35" stroke-linecap="round"/>
    <rect x="54" y="191" width="67" height="144" rx="32" fill="url(#orange)"/>
    <rect x="386" y="191" width="67" height="144" rx="32" fill="url(#orange)"/>
    <path d="M402 333c0 62-41 91-105 93" fill="none" stroke="#f8fafc" stroke-width="25" stroke-linecap="round"/>
    <rect x="266" y="404" width="66" height="36" rx="18" fill="#f8fafc"/>
    <path d="M159 282c19-67 75-108 142-108 26 0 49 5 69 14-17 68-74 110-142 110-26 0-49-5-69-16Z" fill="#873d1a" stroke="#f8fafc"
          stroke-width="10"/>
    <path d="M257 208l22 56M235 222l44-17M244 244l44-17" fill="none" stroke="#f8fafc" stroke-width="10" stroke-linecap="round"/>
</svg>
